<svg version="1.1" viewBox="0.0 0.0 2560.0 1440.0" fill="none" stroke="none" stroke-linecap="square" stroke-miterlimit="10" xmlns:xlink="http://www.w3.org/1999/xlink" xmlns="http://www.w3.org/2000/svg"><clipPath id="g2df6cab08a4_0_9.0"><path d="m0 0l2560.0 0l0 1440.0l-2560.0 0l0 -1440.0z" clip-rule="nonzero"/></clipPath><g clip-path="url(#g2df6cab08a4_0_9.0)"><path fill="#ffffff" d="m0 0l2560.0 0l0 1440.0l-2560.0 0z" fill-rule="evenodd"/><path fill="#000000" fill-opacity="0.0" d="m869.2444 462.46277l584.25195 0l0 319.24408l-584.25195 0z" fill-rule="evenodd"/><path fill="#000000" d="m1108.6827 712.9125q-24.96875 0 -24.96875 -23.5625l0 -83.203125q0 -33.28125 21.3125 -52.6875q21.328125 -19.40625 56.34375 -19.40625q35.015625 0 56.328125 19.40625q21.328125 19.40625 21.328125 52.6875l0 83.203125q0 23.5625 -24.96875 23.5625q-24.953125 0 -24.953125 -23.5625l0 -80.421875q0 -16.296875 -7.28125 -24.78125q-7.28125 -8.5 -20.453125 -8.5q-13.171875 0 -20.453125 8.5q-7.28125 8.484375 -7.28125 24.78125l0 80.421875q0 23.5625 -24.953125 23.5625z" fill-rule="nonzero"/><path fill="#000000" fill-opacity="0.0" d="m1089.0975 524.9577l584.25195 0l0 319.24408l-584.25195 0z" fill-rule="evenodd"/><path fill="#ed7d31" d="m1282.7772 775.4074q-24.96875 0 -24.96875 -23.5625l0 -83.203125q0 -35.359375 16.8125 -53.71875q16.8125 -18.375 48.359375 -18.375q42.984375 0 58.25 30.84375q15.25 -30.84375 58.234375 -30.84375q31.546875 0 48.359375 18.375q16.8125 18.359375 16.8125 53.71875l0 83.203125q0 23.5625 -24.96875 23.5625q-24.953125 0 -24.953125 -23.5625l0 -80.421875q0 -17.6875 -5.890625 -25.484375q-5.890625 -7.796875 -18.375 -7.796875q-24.953125 0 -24.953125 33.28125l0 79.03125q0 23.578125 -24.265625 23.578125q-24.265625 0 -24.265625 -23.578125l0 -79.03125q0 -33.28125 -24.96875 -33.28125q-24.265625 0 -24.265625 33.28125l0 80.421875q0 23.5625 -24.953125 23.5625z" fill-rule="nonzero"/></g></svg>