<svg id="Layer_1" data-name="Layer 1" xmlns="http://www.w3.org/2000/svg" viewBox="0 0 1500 1000"><defs><style>.cls-1{fill:#b22234;}.cls-2{stroke:#fff;stroke-miterlimit:10;stroke-width:50px;}.cls-3{fill:#3c3b6e;}.cls-4{fill:#fff;}</style></defs><rect class="cls-1" width="1500" height="998.93"/><path class="cls-2" d="M0,115.26H1500m0,153.68H0M0,422.63H1500m0,153.68H0M0,730H1500m0,153.68H0"/><rect class="cls-3" width="759.19" height="537.89"/><g id="s18"><g id="s9"><g id="s5"><g id="s4"><path id="s" class="cls-4" d="M63.27,23.05,81.33,78.66,34,44.29H92.5L45.2,78.66Z"/><path id="s-2" data-name="s" class="cls-4" d="M63.27,130.63l18.06,55.6L34,151.87H92.5L45.2,186.23Z"/><path id="s-3" data-name="s" class="cls-4" d="M63.27,238.21l18.06,55.6L34,259.45H92.5L45.2,293.81Z"/><path id="s-4" data-name="s" class="cls-4" d="M63.27,345.78l18.06,55.61L34,367H92.5L45.2,401.39Z"/></g><path id="s-5" data-name="s" class="cls-4" d="M63.27,453.36,81.33,509,34,474.6H92.5L45.2,509Z"/></g><g id="s4-2" data-name="s4"><path id="s-6" data-name="s" class="cls-4" d="M126.53,76.84l18.07,55.6L97.3,98.08h58.46l-47.29,34.36Z"/><path id="s-7" data-name="s" class="cls-4" d="M126.53,184.42,144.6,240,97.3,205.66h58.46L108.47,240Z"/><path id="s-8" data-name="s" class="cls-4" d="M126.53,292l18.07,55.6L97.3,313.23h58.46L108.47,347.6Z"/><path id="s-9" data-name="s" class="cls-4" d="M126.53,399.57l18.07,55.61L97.3,420.81h58.46l-47.29,34.37Z"/></g></g><g id="s9-2" data-name="s9"><g id="s5-2" data-name="s5"><g id="s4-3" data-name="s4"><path id="s-10" data-name="s" class="cls-4" d="M189.8,23.05l18.06,55.61L160.57,44.29H219l-47.3,34.37Z"/><path id="s-11" data-name="s" class="cls-4" d="M189.8,130.63l18.06,55.6-47.29-34.36H219l-47.3,34.36Z"/><path id="s-12" data-name="s" class="cls-4" d="M189.8,238.21l18.06,55.6-47.29-34.36H219l-47.3,34.36Z"/><path id="s-13" data-name="s" class="cls-4" d="M189.8,345.78l18.06,55.61L160.57,367H219l-47.3,34.37Z"/></g><path id="s-14" data-name="s" class="cls-4" d="M189.8,453.36,207.86,509,160.57,474.6H219L171.73,509Z"/></g><g id="s4-4" data-name="s4"><path id="s-15" data-name="s" class="cls-4" d="M253.06,76.84l18.07,55.6-47.3-34.36H282.3L235,132.44Z"/><path id="s-16" data-name="s" class="cls-4" d="M253.06,184.42,271.13,240l-47.3-34.36H282.3L235,240Z"/><path id="s-17" data-name="s" class="cls-4" d="M253.06,292l18.07,55.6-47.3-34.37H282.3L235,347.6Z"/><path id="s-18" data-name="s" class="cls-4" d="M253.06,399.57l18.07,55.61-47.3-34.37H282.3L235,455.18Z"/></g></g></g><g id="s18-2" data-name="s18"><g id="s9-3" data-name="s9"><g id="s5-3" data-name="s5"><g id="s4-5" data-name="s4"><path id="s-19" data-name="s" class="cls-4" d="M316.33,23.05,334.4,78.66,287.1,44.29h58.46l-47.3,34.37Z"/><path id="s-20" data-name="s" class="cls-4" d="M316.33,130.63l18.07,55.6-47.3-34.36h58.46l-47.3,34.36Z"/><path id="s-21" data-name="s" class="cls-4" d="M316.33,238.21l18.07,55.6-47.3-34.36h58.46l-47.3,34.36Z"/><path id="s-22" data-name="s" class="cls-4" d="M316.33,345.78l18.07,55.61L287.1,367h58.46l-47.3,34.37Z"/></g><path id="s-23" data-name="s" class="cls-4" d="M316.33,453.36,334.4,509,287.1,474.6h58.46L298.26,509Z"/></g><g id="s4-6" data-name="s4"><path id="s-24" data-name="s" class="cls-4" d="M379.59,76.84l18.07,55.6-47.3-34.36h58.47l-47.3,34.36Z"/><path id="s-25" data-name="s" class="cls-4" d="M379.59,184.42,397.66,240l-47.3-34.36h58.47L361.53,240Z"/><path id="s-26" data-name="s" class="cls-4" d="M379.59,292l18.07,55.6-47.3-34.37h58.47l-47.3,34.37Z"/><path id="s-27" data-name="s" class="cls-4" d="M379.59,399.57l18.07,55.61-47.3-34.37h58.47l-47.3,34.37Z"/></g></g><g id="s9-4" data-name="s9"><g id="s5-4" data-name="s5"><g id="s4-7" data-name="s4"><path id="s-28" data-name="s" class="cls-4" d="M442.86,23.05l18.07,55.61-47.3-34.37h58.46l-47.3,34.37Z"/><path id="s-29" data-name="s" class="cls-4" d="M442.86,130.63l18.07,55.6-47.3-34.36h58.46l-47.3,34.36Z"/><path id="s-30" data-name="s" class="cls-4" d="M442.86,238.21l18.07,55.6-47.3-34.36h58.46l-47.3,34.36Z"/><path id="s-31" data-name="s" class="cls-4" d="M442.86,345.78l18.07,55.61L413.63,367h58.46l-47.3,34.37Z"/></g><path id="s-32" data-name="s" class="cls-4" d="M442.86,453.36,460.93,509l-47.3-34.37h58.46L424.79,509Z"/></g><g id="s4-8" data-name="s4"><path id="s-33" data-name="s" class="cls-4" d="M506.13,76.84l18.06,55.6-47.3-34.36h58.47l-47.3,34.36Z"/><path id="s-34" data-name="s" class="cls-4" d="M506.13,184.42,524.19,240l-47.3-34.36h58.47L488.06,240Z"/><path id="s-35" data-name="s" class="cls-4" d="M506.13,292l18.06,55.6-47.3-34.37h58.47l-47.3,34.37Z"/><path id="s-36" data-name="s" class="cls-4" d="M506.13,399.57l18.06,55.61-47.3-34.37h58.47l-47.3,34.37Z"/></g></g></g><g id="s9-5" data-name="s9"><g id="s5-5" data-name="s5"><g id="s4-9" data-name="s4"><path id="s-37" data-name="s" class="cls-4" d="M569.39,23.05l18.07,55.61-47.3-34.37h58.46L551.33,78.66Z"/><path id="s-38" data-name="s" class="cls-4" d="M569.39,130.63l18.07,55.6-47.3-34.36h58.46l-47.29,34.36Z"/><path id="s-39" data-name="s" class="cls-4" d="M569.39,238.21l18.07,55.6-47.3-34.36h58.46l-47.29,34.36Z"/><path id="s-40" data-name="s" class="cls-4" d="M569.39,345.78l18.07,55.61L540.16,367h58.46l-47.29,34.37Z"/></g><path id="s-41" data-name="s" class="cls-4" d="M569.39,453.36,587.46,509l-47.3-34.37h58.46L551.33,509Z"/></g><g id="s4-10" data-name="s4"><path id="s-42" data-name="s" class="cls-4" d="M632.66,76.84l18.06,55.6L603.43,98.08h58.46l-47.3,34.36Z"/><path id="s-43" data-name="s" class="cls-4" d="M632.66,184.42,650.72,240l-47.29-34.36h58.46L614.59,240Z"/><path id="s-44" data-name="s" class="cls-4" d="M632.66,292l18.06,55.6-47.29-34.37h58.46l-47.3,34.37Z"/><path id="s-45" data-name="s" class="cls-4" d="M632.66,399.57l18.06,55.61-47.29-34.37h58.46l-47.3,34.37Z"/></g></g><g id="s5-6" data-name="s5"><g id="s4-11" data-name="s4"><path id="s-46" data-name="s" class="cls-4" d="M695.92,23.05,714,78.66l-47.3-34.37h58.47l-47.3,34.37Z"/><path id="s-47" data-name="s" class="cls-4" d="M695.92,130.63,714,186.23l-47.3-34.36h58.47l-47.3,34.36Z"/><path id="s-48" data-name="s" class="cls-4" d="M695.92,238.21,714,293.81l-47.3-34.36h58.47l-47.3,34.36Z"/><path id="s-49" data-name="s" class="cls-4" d="M695.92,345.78,714,401.39,666.69,367h58.47l-47.3,34.37Z"/></g><path id="s-50" data-name="s" class="cls-4" d="M695.92,453.36,714,509l-47.3-34.37h58.47L677.86,509Z"/></g></svg>